<mxfile host="app.diagrams.net" agent="Mozilla/5.0 (Windows NT 10.0; Win64; x64) AppleWebKit/537.36 (KHTML, like Gecko) Chrome/128.0.0.0 Safari/537.36" version="24.7.7">
  <diagram name="Page-1" id="uReM5_SKiZhSZjIBEIPB">
    <mxGraphModel dx="2072" dy="591" grid="1" gridSize="10" guides="1" tooltips="1" connect="1" arrows="1" fold="1" page="1" pageScale="1" pageWidth="850" pageHeight="1100" math="0" shadow="0">
      <root>
        <mxCell id="0" />
        <mxCell id="1" parent="0" />
        <mxCell id="-PlphDC-o8zd8pscpt6C-15" style="edgeStyle=orthogonalEdgeStyle;rounded=0;orthogonalLoop=1;jettySize=auto;html=1;exitX=1;exitY=0.5;exitDx=0;exitDy=0;" edge="1" parent="1">
          <mxGeometry relative="1" as="geometry">
            <mxPoint x="356" y="60" as="targetPoint" />
            <mxPoint x="276" y="60" as="sourcePoint" />
          </mxGeometry>
        </mxCell>
        <mxCell id="-PlphDC-o8zd8pscpt6C-2" value="Patient is Registered" style="rounded=1;whiteSpace=wrap;html=1;" vertex="1" parent="1">
          <mxGeometry x="130" y="45" width="140" height="30" as="geometry" />
        </mxCell>
        <mxCell id="-PlphDC-o8zd8pscpt6C-3" value="" style="shape=waypoint;sketch=0;fillStyle=solid;size=6;pointerEvents=1;points=[];fillColor=none;resizable=0;rotatable=0;perimeter=centerPerimeter;snapToPoint=1;strokeWidth=8;" vertex="1" parent="1">
          <mxGeometry x="358" y="50" width="20" height="20" as="geometry" />
        </mxCell>
        <mxCell id="-PlphDC-o8zd8pscpt6C-10" style="edgeStyle=orthogonalEdgeStyle;rounded=0;orthogonalLoop=1;jettySize=auto;html=1;exitX=0.5;exitY=1;exitDx=0;exitDy=0;entryX=0.5;entryY=0;entryDx=0;entryDy=0;" edge="1" parent="1" source="-PlphDC-o8zd8pscpt6C-7" target="-PlphDC-o8zd8pscpt6C-9">
          <mxGeometry relative="1" as="geometry" />
        </mxCell>
        <mxCell id="-PlphDC-o8zd8pscpt6C-7" value="Login" style="rounded=1;whiteSpace=wrap;html=1;" vertex="1" parent="1">
          <mxGeometry x="318" y="120" width="100" height="30" as="geometry" />
        </mxCell>
        <mxCell id="-PlphDC-o8zd8pscpt6C-8" value="" style="endArrow=classic;html=1;rounded=0;entryX=0.5;entryY=0;entryDx=0;entryDy=0;" edge="1" parent="1" target="-PlphDC-o8zd8pscpt6C-7">
          <mxGeometry width="50" height="50" relative="1" as="geometry">
            <mxPoint x="368" y="60" as="sourcePoint" />
            <mxPoint x="310" y="120" as="targetPoint" />
          </mxGeometry>
        </mxCell>
        <mxCell id="-PlphDC-o8zd8pscpt6C-13" style="edgeStyle=orthogonalEdgeStyle;rounded=0;orthogonalLoop=1;jettySize=auto;html=1;exitX=1;exitY=0.5;exitDx=0;exitDy=0;entryX=0;entryY=0.5;entryDx=0;entryDy=0;" edge="1" parent="1" source="-PlphDC-o8zd8pscpt6C-9" target="-PlphDC-o8zd8pscpt6C-11">
          <mxGeometry relative="1" as="geometry" />
        </mxCell>
        <mxCell id="-PlphDC-o8zd8pscpt6C-18" style="edgeStyle=orthogonalEdgeStyle;rounded=0;orthogonalLoop=1;jettySize=auto;html=1;exitX=0.5;exitY=1;exitDx=0;exitDy=0;" edge="1" parent="1" source="-PlphDC-o8zd8pscpt6C-9">
          <mxGeometry relative="1" as="geometry">
            <mxPoint x="368" y="480" as="targetPoint" />
          </mxGeometry>
        </mxCell>
        <mxCell id="-PlphDC-o8zd8pscpt6C-9" value="if user is an admin" style="rhombus;whiteSpace=wrap;html=1;" vertex="1" parent="1">
          <mxGeometry x="298" y="250" width="140" height="110" as="geometry" />
        </mxCell>
        <mxCell id="-PlphDC-o8zd8pscpt6C-12" style="edgeStyle=orthogonalEdgeStyle;rounded=0;orthogonalLoop=1;jettySize=auto;html=1;exitX=0.5;exitY=0;exitDx=0;exitDy=0;entryX=1;entryY=0.5;entryDx=0;entryDy=0;" edge="1" parent="1" source="-PlphDC-o8zd8pscpt6C-11" target="-PlphDC-o8zd8pscpt6C-7">
          <mxGeometry relative="1" as="geometry" />
        </mxCell>
        <mxCell id="-PlphDC-o8zd8pscpt6C-11" value="invalid login" style="rounded=1;whiteSpace=wrap;html=1;" vertex="1" parent="1">
          <mxGeometry x="520" y="290" width="103" height="30" as="geometry" />
        </mxCell>
        <mxCell id="-PlphDC-o8zd8pscpt6C-14" value="False" style="text;html=1;align=center;verticalAlign=middle;resizable=0;points=[];autosize=1;strokeColor=none;fillColor=none;" vertex="1" parent="1">
          <mxGeometry x="450" y="280" width="50" height="30" as="geometry" />
        </mxCell>
        <mxCell id="-PlphDC-o8zd8pscpt6C-16" value="" style="endArrow=none;html=1;rounded=0;strokeWidth=9;" edge="1" parent="1">
          <mxGeometry width="50" height="50" relative="1" as="geometry">
            <mxPoint y="673" as="sourcePoint" />
            <mxPoint x="850" y="673" as="targetPoint" />
          </mxGeometry>
        </mxCell>
        <mxCell id="-PlphDC-o8zd8pscpt6C-17" value="" style="endArrow=none;html=1;rounded=0;strokeWidth=9;" edge="1" parent="1">
          <mxGeometry width="50" height="50" relative="1" as="geometry">
            <mxPoint y="485" as="sourcePoint" />
            <mxPoint x="850" y="485" as="targetPoint" />
          </mxGeometry>
        </mxCell>
        <mxCell id="-PlphDC-o8zd8pscpt6C-19" value="True" style="text;html=1;align=center;verticalAlign=middle;resizable=0;points=[];autosize=1;strokeColor=none;fillColor=none;" vertex="1" parent="1">
          <mxGeometry x="360" y="388" width="50" height="30" as="geometry" />
        </mxCell>
        <mxCell id="-PlphDC-o8zd8pscpt6C-31" style="edgeStyle=orthogonalEdgeStyle;rounded=0;orthogonalLoop=1;jettySize=auto;html=1;exitX=0.5;exitY=1;exitDx=0;exitDy=0;" edge="1" parent="1" source="-PlphDC-o8zd8pscpt6C-22">
          <mxGeometry relative="1" as="geometry">
            <mxPoint x="140.30769230769238" y="670" as="targetPoint" />
          </mxGeometry>
        </mxCell>
        <mxCell id="-PlphDC-o8zd8pscpt6C-22" value="View Profile" style="rounded=1;whiteSpace=wrap;html=1;" vertex="1" parent="1">
          <mxGeometry x="130" y="580" width="80" height="30" as="geometry" />
        </mxCell>
        <mxCell id="-PlphDC-o8zd8pscpt6C-28" style="edgeStyle=orthogonalEdgeStyle;rounded=0;orthogonalLoop=1;jettySize=auto;html=1;exitX=0.5;exitY=1;exitDx=0;exitDy=0;" edge="1" parent="1" source="-PlphDC-o8zd8pscpt6C-23">
          <mxGeometry relative="1" as="geometry">
            <mxPoint x="531.0769230769229" y="670" as="targetPoint" />
          </mxGeometry>
        </mxCell>
        <mxCell id="-PlphDC-o8zd8pscpt6C-23" value="Send Message" style="rounded=1;whiteSpace=wrap;html=1;" vertex="1" parent="1">
          <mxGeometry x="510" y="570" width="102" height="30" as="geometry" />
        </mxCell>
        <mxCell id="-PlphDC-o8zd8pscpt6C-29" style="edgeStyle=orthogonalEdgeStyle;rounded=0;orthogonalLoop=1;jettySize=auto;html=1;exitX=0.5;exitY=1;exitDx=0;exitDy=0;" edge="1" parent="1" source="-PlphDC-o8zd8pscpt6C-24">
          <mxGeometry relative="1" as="geometry">
            <mxPoint x="720.3076923076924" y="670" as="targetPoint" />
          </mxGeometry>
        </mxCell>
        <mxCell id="-PlphDC-o8zd8pscpt6C-24" value="Receive Message" style="rounded=1;whiteSpace=wrap;html=1;" vertex="1" parent="1">
          <mxGeometry x="720" y="580" width="102" height="30" as="geometry" />
        </mxCell>
        <mxCell id="-PlphDC-o8zd8pscpt6C-30" style="edgeStyle=orthogonalEdgeStyle;rounded=0;orthogonalLoop=1;jettySize=auto;html=1;exitX=0.5;exitY=1;exitDx=0;exitDy=0;" edge="1" parent="1" source="-PlphDC-o8zd8pscpt6C-25">
          <mxGeometry relative="1" as="geometry">
            <mxPoint x="326.46153846153857" y="670" as="targetPoint" />
          </mxGeometry>
        </mxCell>
        <mxCell id="-PlphDC-o8zd8pscpt6C-25" value="Check Medical history" style="rounded=1;whiteSpace=wrap;html=1;" vertex="1" parent="1">
          <mxGeometry x="318" y="580" width="102" height="30" as="geometry" />
        </mxCell>
        <mxCell id="-PlphDC-o8zd8pscpt6C-32" value="" style="endArrow=classic;html=1;rounded=0;entryX=0.5;entryY=0;entryDx=0;entryDy=0;edgeStyle=orthogonalEdgeStyle;" edge="1" parent="1" target="-PlphDC-o8zd8pscpt6C-22">
          <mxGeometry width="50" height="50" relative="1" as="geometry">
            <mxPoint x="140" y="490" as="sourcePoint" />
            <mxPoint x="400" y="450" as="targetPoint" />
          </mxGeometry>
        </mxCell>
        <mxCell id="-PlphDC-o8zd8pscpt6C-33" value="" style="endArrow=classic;html=1;rounded=0;entryX=0.5;entryY=0;entryDx=0;entryDy=0;edgeStyle=orthogonalEdgeStyle;" edge="1" parent="1" target="-PlphDC-o8zd8pscpt6C-25">
          <mxGeometry width="50" height="50" relative="1" as="geometry">
            <mxPoint x="327" y="490" as="sourcePoint" />
            <mxPoint x="278" y="562" as="targetPoint" />
          </mxGeometry>
        </mxCell>
        <mxCell id="-PlphDC-o8zd8pscpt6C-34" value="" style="endArrow=classic;html=1;rounded=0;entryX=0.5;entryY=0;entryDx=0;entryDy=0;edgeStyle=orthogonalEdgeStyle;" edge="1" parent="1" target="-PlphDC-o8zd8pscpt6C-23">
          <mxGeometry width="50" height="50" relative="1" as="geometry">
            <mxPoint x="530" y="490" as="sourcePoint" />
            <mxPoint x="160" y="570" as="targetPoint" />
          </mxGeometry>
        </mxCell>
        <mxCell id="-PlphDC-o8zd8pscpt6C-35" value="" style="endArrow=classic;html=1;rounded=0;entryX=0.5;entryY=0;entryDx=0;entryDy=0;edgeStyle=orthogonalEdgeStyle;" edge="1" parent="1" target="-PlphDC-o8zd8pscpt6C-24">
          <mxGeometry width="50" height="50" relative="1" as="geometry">
            <mxPoint x="721" y="490" as="sourcePoint" />
            <mxPoint x="170" y="580" as="targetPoint" />
          </mxGeometry>
        </mxCell>
        <mxCell id="-PlphDC-o8zd8pscpt6C-36" value="" style="shape=waypoint;sketch=0;fillStyle=solid;size=6;pointerEvents=1;points=[];fillColor=none;resizable=0;rotatable=0;perimeter=centerPerimeter;snapToPoint=1;strokeWidth=8;" vertex="1" parent="1">
          <mxGeometry x="430" y="760" width="20" height="20" as="geometry" />
        </mxCell>
        <mxCell id="-PlphDC-o8zd8pscpt6C-37" value="" style="endArrow=classic;html=1;rounded=0;" edge="1" parent="1">
          <mxGeometry width="50" height="50" relative="1" as="geometry">
            <mxPoint x="440" y="668" as="sourcePoint" />
            <mxPoint x="440" y="748" as="targetPoint" />
          </mxGeometry>
        </mxCell>
        <mxCell id="-PlphDC-o8zd8pscpt6C-38" value="" style="endArrow=classic;html=1;rounded=0;" edge="1" parent="1">
          <mxGeometry width="50" height="50" relative="1" as="geometry">
            <mxPoint x="458" y="770" as="sourcePoint" />
            <mxPoint x="548" y="770" as="targetPoint" />
          </mxGeometry>
        </mxCell>
        <mxCell id="-PlphDC-o8zd8pscpt6C-39" value="" style="ellipse;whiteSpace=wrap;html=1;fillColor=none;strokeWidth=2;" vertex="1" parent="1">
          <mxGeometry x="425" y="755" width="30" height="30" as="geometry" />
        </mxCell>
        <mxCell id="-PlphDC-o8zd8pscpt6C-40" value="Logout" style="rounded=1;whiteSpace=wrap;html=1;" vertex="1" parent="1">
          <mxGeometry x="550" y="755" width="100" height="30" as="geometry" />
        </mxCell>
      </root>
    </mxGraphModel>
  </diagram>
</mxfile>
